<svg width="148.000000" height="148.000000" viewBox="0 0 148 148" fill="none" xmlns="http://www.w3.org/2000/svg" xmlns:xlink="http://www.w3.org/1999/xlink">
	<desc>
			Created with Pixso.
	</desc>
	<defs>
		<clipPath id="clip4_129">
			<rect id="Frame 1" rx="74.000000" width="148.000000" height="148.000000" fill="white" fill-opacity="0"/>
		</clipPath>
	</defs>
	<rect id="Frame 1" rx="74.000000" width="148.000000" height="148.000000" fill="#FFFFFF" fill-opacity="0"/>
	<g clip-path="url(#clip4_129)">
		<path id="Vector 1" d="M-51 -49C31.5 -49 114 -49 199 -49C199 33.5 199 116 199 201C116.5 201 34 201 -51 201C-51 118.5 -51 36 -51 -49Z" fill="#5B5B5F" fill-opacity="1.000000" fill-rule="nonzero"/>
		<path id="Vector 1" d="M124.29 39.86C124.29 40.18 124.29 40.51 124.29 40.84C124.61 40.84 124.93 40.84 125.27 40.84C126.24 42.79 126.24 42.79 126.24 44.26C126.56 44.26 126.89 44.26 127.22 44.26C127.94 46.05 128.66 47.85 129.37 49.65C129.81 50.75 130.26 51.85 130.73 52.95C133.61 59.8 134.14 66.51 134.14 73.87C134.14 75.16 134.15 76.46 134.16 77.75C134.18 81.84 134.12 85.7 133.08 89.67C132.75 89.67 132.43 89.67 132.1 89.67C132.14 90.14 132.18 90.61 132.22 91.1C132.07 93.53 131.2 95.34 130.15 97.48C129.87 98.14 129.58 98.81 129.29 99.49C124.99 109.06 124.99 109.06 120.87 112.13C120.36 112.93 119.87 113.74 119.41 114.57C117.12 116.96 117.12 116.96 115.5 117.5C115.34 117.98 115.18 118.47 115.01 118.96C114.37 119.13 113.72 119.29 113.06 119.45C112.5 120.03 112.5 120.03 111.93 120.61C109.62 122.87 109.62 122.87 107.2 122.87C106.88 123.52 106.55 124.16 106.22 124.82C105.83 124.94 105.44 125.07 105.03 125.19C103.31 125.79 101.67 126.51 100.01 127.26C98.36 127.99 96.68 128.6 94.99 129.22C94.52 129.39 94.04 129.56 93.55 129.74C90.24 130.95 89.58 131.17 85.71 130.68C86.41 127.9 88.44 127.3 90.99 126.17C94.26 124.37 97.06 122.23 98.9 118.96C99.7 118.14 100.52 117.33 101.34 116.52C103.8 114.02 103.8 114.02 105.73 111.15C102.2 112.28 102.2 112.28 100.85 115.55C96.94 118.48 96.94 118.48 95.97 117.99C96.8 117.22 96.8 117.22 97.65 116.43C104.18 109.85 108.68 100.99 111.1 92.11C111.3 91.45 111.49 90.79 111.68 90.1C112.93 85.16 113.25 80.44 113.27 75.35C113.28 74.75 113.28 74.14 113.29 73.52C113.25 69.31 112.62 65.43 111.59 61.35C111.66 61.71 111.73 62.08 111.8 62.45C112.57 66.91 112.73 71.26 112.72 75.78C112.73 76.47 112.74 77.16 112.75 77.87C112.75 82.05 112.3 85.68 111.1 89.67C110.83 90.85 110.55 92.03 110.28 93.21C110.16 93.74 110.04 94.28 109.91 94.83C109.82 95.22 109.73 95.61 109.64 96.01C109.32 96.01 109 96.01 108.66 96.01C108.66 96.82 108.66 97.63 108.66 98.46C107.69 99.43 107.69 99.43 105.25 99.43C105.26 99.79 105.27 100.15 105.28 100.52C105.29 101 105.3 101.48 105.31 101.97C105.32 102.44 105.33 102.91 105.34 103.39C105.24 104.87 104.89 105.91 104.27 107.25C103.79 107.25 103.3 107.25 102.8 107.25C102.64 108.05 102.48 108.86 102.32 109.69C100.73 111.88 99.61 113.42 97.43 115.06C97.27 115.54 97.11 116.02 96.94 116.52C94.5 117.99 94.5 117.99 93.53 117.99C93.37 118.63 93.2 119.28 93.04 119.94C92.06 120.92 92.06 120.92 90.6 120.92C90.6 121.24 90.6 121.56 90.6 121.89C89.13 122.87 89.13 122.87 85.71 122.87C85.55 123.68 85.39 124.48 85.23 125.31C84.26 125.8 84.26 125.8 83.27 126.29C83.59 126.45 83.92 126.61 84.25 126.78C82.62 131.66 72.16 131.32 67.92 131.29C67.35 131.3 66.79 131.3 66.2 131.3C62.8 131.3 59.73 130.98 56.42 130.19C56.42 130.03 56.42 129.87 56.42 129.71C58.19 129.71 59.96 129.71 61.79 129.71C61.18 129.62 60.58 129.53 59.95 129.44C59.16 129.31 58.36 129.19 57.55 129.07C56.76 128.95 55.97 128.83 55.16 128.71C53.19 128.28 52.22 127.8 50.56 126.78C49.43 126.62 48.3 126.45 47.14 126.29C50.04 127.26 52.94 128.22 55.93 129.22C55.93 129.38 55.93 129.54 55.93 129.71C51.74 130.01 48.93 129.1 45.19 127.27C44.5 126.93 44.5 126.93 43.79 126.59C40.51 124.9 37.73 122.83 34.93 120.43C34.37 119.96 34.37 119.96 33.79 119.48C29.95 116.22 27.14 112.86 25.17 108.22C23.97 105.96 22.71 103.74 21.45 101.52C16.99 93.51 16.7 85.38 16.74 76.43C16.74 75.02 16.74 73.61 16.73 72.2C16.72 62.74 17.45 53.15 22.24 44.75C22.45 44.34 22.66 43.93 22.87 43.51C26.14 37.22 30.42 31.67 35.91 27.17C36.37 26.78 36.82 26.4 37.3 26C63.15 5.11 105.77 13.06 124.29 39.86Z" fill="#2F639B" fill-opacity="1.000000" fill-rule="nonzero"/>
		<path id="Vector 1" d="M60.72 45.03C61.65 45.02 62.57 45.01 63.5 44.99C74.8 44.79 82.9 48.44 86.2 59.88C86.32 61.48 86.32 61.48 86.31 63.22C86.31 64.2 86.31 64.2 86.31 65.2C86.31 65.9 86.3 66.6 86.3 67.32C86.3 68.05 86.29 68.77 86.29 69.51C86.29 71.82 86.28 74.12 86.26 76.42C86.26 77.99 86.25 79.55 86.25 81.11C86.22 93.41 86.22 93.41 82.78 94.55C82.46 94.87 82.14 95.19 81.81 95.53C81.32 95.53 80.84 95.53 80.34 95.53C80.21 96.01 80.21 96.01 80.07 96.5C74.32 108.5 59.71 105.41 48.9 104.54C47.26 104.41 45.62 104.28 43.98 104.16C31.78 103.22 22 102.21 19.8 88.2C19.64 86.03 19.62 83.87 19.61 81.69C19.61 81.08 19.61 80.46 19.6 79.82C19.59 78.52 19.59 77.21 19.59 75.91C19.58 73.93 19.56 71.96 19.53 69.98C19.53 68.71 19.53 67.43 19.52 66.16C19.51 65.58 19.5 64.99 19.49 64.39C19.54 56.14 23.01 48.32 31.51 46.21C32.76 46.07 34.01 45.97 35.26 45.9C36 45.86 36.74 45.82 37.5 45.78C38.29 45.74 39.09 45.7 39.91 45.66C40.32 45.64 40.73 45.62 41.15 45.6C47.67 45.29 54.19 45.09 60.72 45.03Z" fill="#F0E9E6" fill-opacity="1.000000" fill-rule="nonzero"/>
		<path id="Vector 1" d="M97.92 29.61C98.47 30.11 99.03 30.62 99.6 31.13C110.29 42.15 117.19 58.68 116.48 74.04C116.15 73.4 115.83 72.75 115.5 72.09C114.63 73.83 114.68 75.85 114.49 77.76C114.45 78.2 114.4 78.64 114.36 79.09C114.25 80.18 114.14 81.26 114.03 82.34C113.87 82.34 113.71 82.34 113.55 82.34C113.54 81.97 113.54 81.59 113.53 81.21C113.14 55.26 102.55 25.6 73.9 19.19C63.31 17.72 54.18 18.86 44.72 23.97C43.23 24.73 43.23 24.73 41.71 25.22C40.28 25.71 39.35 26.29 38.17 27.23C36.4 28.63 36.4 28.63 34.93 28.14C40.96 22.57 48.04 18.7 55.93 16.42C56.53 16.25 57.13 16.08 57.75 15.9C72.97 12.61 87.08 19.41 97.92 29.61Z" fill="#BFC1CA" fill-opacity="1.000000" fill-rule="nonzero"/>
		<path id="Vector 1" d="M111.1 59.39C121.87 70.16 109.91 100.62 103.04 110.48C101.01 113.16 98.93 115.71 96.46 117.99C100.45 116.03 100.45 116.03 101.34 113.1C103.78 111.15 103.78 111.15 105.73 111.15C104.83 112.96 103.89 114.27 102.62 115.82C102.06 116.52 102.06 116.52 101.48 117.23C100.36 118.48 100.36 118.48 98.41 119.94C98.19 120.33 97.97 120.71 97.74 121.11C96.72 122.75 95.49 123.6 93.92 124.73C93.39 125.12 92.86 125.5 92.32 125.9C91.08 126.78 91.08 126.78 90.11 126.78C89.79 127.1 89.46 127.42 89.13 127.75C88.16 128.26 87.19 128.75 86.2 129.22C86.04 129.7 85.88 130.18 85.71 130.68C87 130.68 88.29 130.68 89.62 130.68C85.66 138.6 59.02 132.76 52.27 130.81C48.34 129.61 44.77 127.96 41.28 125.8C42.26 125.31 42.26 125.31 43.81 126.04C44.47 126.36 45.14 126.67 45.83 126.99C46.82 127.46 46.82 127.46 47.84 127.93C50.48 129.14 51.33 129.22 54.46 129.22C50.84 128.01 50.84 128.01 47.14 126.78C46.82 126.45 46.5 126.13 46.16 125.8C51.05 126.29 51.05 126.29 51.53 127.27C52.6 127.5 53.67 127.73 54.74 127.97C55.33 128.1 55.93 128.23 56.54 128.36C58.29 128.71 60.02 128.98 61.79 129.22C61.95 129.54 62.11 129.86 62.28 130.19C60.99 130.19 59.7 130.19 58.37 130.19C61.49 130.77 64.52 130.79 67.68 130.81C68.24 130.82 68.8 130.83 69.38 130.84C74.46 130.86 78.98 129.88 83.76 128.24C83.6 127.76 83.44 127.27 83.27 126.78C82.31 127.1 81.34 127.42 80.34 127.75C81.91 126.19 83.19 125.63 85.23 124.82C85.39 124.18 85.55 123.53 85.71 122.87C86.51 122.76 86.51 122.76 87.33 122.66C89.1 122.44 89.1 122.44 90.6 121.89C90.6 121.57 90.6 121.25 90.6 120.92C91.4 120.43 92.21 119.95 93.04 119.45C93.28 118.73 93.28 118.73 93.53 117.99C95.97 116.52 95.97 116.52 96.94 116.52C97.19 115.56 97.19 115.56 97.43 114.57C97.87 114.27 98.3 113.97 98.74 113.65C100.76 111.75 101.7 109.75 102.8 107.25C103.29 107.25 103.77 107.25 104.27 107.25C104.59 104.67 104.91 102.09 105.25 99.43C106.21 99.11 107.18 98.79 108.18 98.46C108.34 97.65 108.5 96.84 108.66 96.01C108.99 96.01 109.31 96.01 109.64 96.01C109.69 95.5 109.74 94.99 109.79 94.46C110.31 90.85 111.2 87.34 112.08 83.81C112.2 81.22 112.17 78.62 112.17 76.03C112.18 75.32 112.18 74.61 112.19 73.88C112.2 70.05 112 66.41 111.32 62.63C111.1 61.35 111.1 61.35 111.1 59.39Z" fill="#38435F" fill-opacity="1.000000" fill-rule="nonzero"/>
		<path id="Vector 1" d="M45.19 24.73C44.34 25.43 43.5 26.13 42.65 26.83C42.18 27.22 41.71 27.61 41.23 28.02C39.98 28.99 38.73 29.77 37.37 30.58C36.89 31.07 36.41 31.55 35.91 32.05C35.59 32.05 35.26 32.05 34.93 32.05C34.93 32.37 34.93 32.69 34.93 33.03C34.21 33.6 34.21 33.6 33.47 34.19C31.18 36.13 29.42 38.46 27.61 40.84C27.29 40.68 26.96 40.52 26.63 40.35C26.15 41.16 25.66 41.96 25.17 42.79C25.89 42.55 25.89 42.55 26.63 42.3C27.12 42.79 27.12 42.79 27.12 46.7C29.3 46.46 29.3 46.46 31.51 46.21C30.4 46.77 29.27 47.32 28.13 47.83C21.09 51.71 20.06 59.22 20.14 66.44C20.14 67.11 20.15 67.78 20.15 68.46C20.16 70.58 20.17 72.69 20.19 74.8C20.2 76.24 20.21 77.68 20.21 79.12C20.23 82.64 20.25 86.15 20.28 89.67C19.64 89.83 19 89.99 18.33 90.16C18.17 88.71 18.01 87.25 17.84 85.76C17.52 85.76 17.2 85.76 16.87 85.76C16.84 82.84 16.82 79.91 16.81 76.98C16.81 75.99 16.8 75 16.79 74.01C16.71 63.93 17.11 53.75 22.24 44.75C22.45 44.34 22.66 43.93 22.87 43.51C25.53 38.39 29.87 30.36 35.57 28.2C37.57 27.37 39.09 26.05 40.79 24.73C44.21 24.24 44.21 24.24 45.19 24.73Z" fill="#4277B0" fill-opacity="1.000000" fill-rule="nonzero"/>
		<path id="Vector 1" d="M120.38 34.49C119.89 36.93 119.89 36.93 116.96 36.93C116.96 35.64 116.96 34.35 116.96 33.03C115.68 33.03 114.39 33.03 113.06 33.03C113.06 31.74 113.06 30.45 113.06 29.12C112.41 28.8 111.77 28.48 111.1 28.14C110.27 27.35 109.45 26.54 108.66 25.7C107.03 25.67 105.83 25.67 104.27 26.19C104.43 25.55 104.59 24.9 104.76 24.24C102.61 23.47 102.61 23.47 100.36 23.26C99.88 22.54 99.88 22.54 99.39 21.8C97.61 21.8 95.84 21.8 94.01 21.8C94.01 25.5 95.14 26.51 98.41 28.14C98.41 28.47 98.41 28.79 98.41 29.12C99.38 29.12 100.34 29.12 101.34 29.12C101.34 28.8 101.34 28.48 101.34 28.14C101.66 28.14 101.98 28.14 102.32 28.14C102.24 28.77 102.15 29.39 102.07 30.04C101.81 31.87 101.81 31.87 101.83 33.03C102.31 32.87 102.79 32.7 103.29 32.54C103.61 33.67 103.94 34.79 104.27 35.96C104.91 36.6 105.56 37.25 106.22 37.91C106.22 38.23 106.22 38.55 106.22 38.89C106.54 38.89 106.87 38.89 107.2 38.89C107.36 39.37 107.52 39.85 107.69 40.35C108.33 40.67 108.98 41 109.64 41.33C110.12 44.23 110.12 44.23 110.62 47.19C110.94 47.35 111.26 47.51 111.59 47.67C111.75 48.64 111.92 49.61 112.08 50.6C110.65 48.7 109.67 46.86 108.6 44.75C102.01 32.04 90.96 21.16 76.92 17.4C76.4 17.25 75.88 17.1 75.35 16.95C71.03 15.82 66.72 15.6 62.28 15.45C62.28 15.29 62.28 15.13 62.28 14.96C84.01 12.5 105.01 18.54 120.38 34.49Z" fill="#5285B8" fill-opacity="1.000000" fill-rule="nonzero"/>
		<path id="Vector 1" d="M86.69 62.32C86.85 62.32 87.01 62.32 87.18 62.32C87.26 65.24 87.34 68.16 87.41 71.07C87.44 72.06 87.47 73.05 87.5 74.04C87.66 79.94 87.69 85.73 87.18 91.62C87.98 91.62 88.79 91.62 89.62 91.62C89.62 93.23 89.62 94.84 89.62 96.5C89.3 96.5 88.98 96.5 88.64 96.5C88.64 96.18 88.64 95.86 88.64 95.53C85.94 96.74 85.94 96.74 85.71 99.43C85.33 99.8 84.95 100.16 84.55 100.53C83.16 101.86 83.16 101.86 82.3 103.83C81.33 104.31 81.33 104.31 80.34 104.8C78.31 106.19 78.31 106.19 76.92 108.22C76.12 108.38 75.31 108.54 74.48 108.71C74.16 109.19 73.84 109.68 73.51 110.18C72.84 110.17 72.18 110.16 71.49 110.14C69.63 110.17 68 110.29 66.18 110.66C66.18 110.34 66.18 110.02 66.18 109.69C62.8 110.17 62.8 110.17 59.35 110.66C59.19 110.5 59.02 110.34 58.86 110.18C54.99 109.59 51.24 109.11 47.33 109.2C42.99 109.2 42.99 109.2 42.26 107.73C40.39 107.69 38.71 107.79 36.89 108.22C36.55 107.99 36.22 107.76 35.88 107.52C34.24 106.65 32.86 106.45 31.03 106.27C27.61 103.34 27.61 103.34 27.61 102.36C27.94 102.5 28.27 102.64 28.62 102.79C31.61 103.94 34.47 104.49 37.66 104.8C38.06 104.84 38.46 104.88 38.87 104.92C40.15 105.05 41.43 105.17 42.71 105.29C43.6 105.38 44.48 105.46 45.37 105.55C47.91 105.79 50.45 106.03 53 106.27C53.65 106.33 54.31 106.39 54.98 106.45C56.58 106.6 58.18 106.74 59.77 106.88C60.44 106.94 60.44 106.94 61.11 107C73.3 108 82.16 103.74 86.2 91.62C86.58 89.25 86.61 86.94 86.6 84.54C86.6 83.9 86.61 83.26 86.62 82.6C86.63 80.58 86.63 78.56 86.63 76.54C86.64 75.16 86.65 73.78 86.66 72.4C86.68 69.04 86.69 65.68 86.69 62.32Z" fill="#173157" fill-opacity="1.000000" fill-rule="nonzero"/>
		<path id="Vector 1" d="M82.3 52.56C85.16 55.42 86.26 59.09 86.26 63.05C86.26 63.71 86.26 64.36 86.26 65.04C86.25 65.74 86.25 66.45 86.25 67.18C86.25 67.91 86.25 68.63 86.25 69.38C86.24 71.69 86.27 74.1 86.26 76.42C86.26 77.99 86.25 79.54 86.25 81.11C86.23 93.49 86.21 93.42 84.37 94C82.69 94.54 82.69 94.54 80.83 95.53C80.99 95.03 81.15 94.53 81.31 94.02C81.79 92.19 81.93 90.69 81.93 88.8C81.94 88.16 81.94 87.53 81.94 86.87C81.94 86.19 81.94 85.51 81.94 84.81C81.94 84.11 81.94 83.4 81.94 82.68C81.94 81.19 81.94 79.7 81.93 78.22C81.93 75.94 81.93 73.66 81.94 71.38C81.94 69.94 81.94 68.49 81.94 67.05C81.94 66.37 81.94 65.69 81.94 64.98C81.94 64.35 81.94 63.72 81.93 63.06C81.93 62.51 81.93 61.95 81.93 61.38C81.81 59.87 81.47 58.8 80.83 57.44C80.99 56.96 81.15 56.47 81.32 55.98C81.65 54.84 81.97 53.7 82.3 52.56Z" fill="#ACADB4" fill-opacity="1.000000" fill-rule="nonzero"/>
		<path id="Vector 1" d="M85.71 93.57C81.59 105.44 71.63 108.42 59.99 107.36C59.55 107.32 59.12 107.28 58.67 107.24C57.26 107.11 55.86 106.98 54.46 106.85C53.5 106.76 52.54 106.67 51.57 106.58C30.88 104.66 30.88 104.66 28.1 101.87C28.79 101.96 29.49 102.05 30.2 102.14C36.55 102.93 42.91 103.56 49.29 104.07C50.49 104.16 51.69 104.26 52.89 104.36C69.1 105.85 69.1 105.85 80.34 95.53C80.74 95.29 81.13 95.06 81.53 94.82C83.58 93.57 83.58 93.57 85.71 93.57Z" fill="#646B7D" fill-opacity="1.000000" fill-rule="nonzero"/>
		<path id="Vector 1" d="M64.87 15.23C65.33 15.23 65.8 15.23 66.27 15.23C71.04 15.31 75.33 16.43 79.85 17.89C79.85 18.37 79.85 18.86 79.85 19.35C80.47 19.61 81.08 19.86 81.72 20.12C84.54 21.38 87.06 23 89.62 24.73C90.07 25.03 90.52 25.33 90.98 25.64C100.23 32.1 100.23 32.1 99.39 35.47C99.01 35.07 98.63 34.66 98.24 34.25C83.59 19.12 63.84 13.64 44.72 23.97C43.23 24.73 43.23 24.73 41.71 25.22C40.28 25.71 39.35 26.29 38.17 27.23C36.4 28.63 36.4 28.63 34.93 28.14C40.96 22.57 48.04 18.7 55.93 16.42C56.53 16.25 57.13 16.08 57.75 15.9C60.14 15.39 62.44 15.24 64.87 15.23Z" fill="#D3D7E0" fill-opacity="1.000000" fill-rule="nonzero"/>
		<path id="Vector 1" d="M115.5 71.11C122.52 80.48 111.66 102.51 106.71 110.66C106.19 110.89 105.66 111.11 105.12 111.33C101.9 112.46 101.9 112.46 100.85 115.55C96.94 118.48 96.94 118.48 95.97 117.99C96.52 117.47 97.08 116.96 97.65 116.43C106.76 107.26 110.68 95.19 113.06 82.83C113.3 82.59 113.3 82.59 113.55 82.34C113.64 81.37 113.64 81.37 113.73 80.38C113.81 79.53 113.89 78.68 113.97 77.83C114.01 77.4 114.05 76.97 114.09 76.53C114.3 74.45 114.55 73.01 115.5 71.11Z" fill="#9E9DA4" fill-opacity="1.000000" fill-rule="nonzero"/>
		<path id="Vector 1" d="M67.65 65.25C69.43 68.83 68.51 71.96 66.67 75.02C63.02 77.21 61.9 76.89 58.37 74.53C55.93 69.66 56.48 67.13 59.83 63.3C63.35 61.54 65.18 63.14 67.65 65.25Z" fill="#413F3C" fill-opacity="1.000000" fill-rule="nonzero"/>
		<path id="Vector 1" d="M34.93 62.81C38.76 65.87 38.35 66.37 38.35 71.6C35.81 75.63 35.81 75.63 31.51 75.02C29.23 72.74 29.01 71.88 29.04 68.82C29.05 68.34 29.05 67.85 29.06 67.35C29.12 63.44 31.87 62.81 34.93 62.81Z" fill="#4B4546" fill-opacity="1.000000" fill-rule="nonzero"/>
		<path id="Vector 1" d="M27.61 102.36C30.05 103.34 30.05 103.34 30.54 104.8C31.13 104.86 31.72 104.92 32.33 104.98C34.53 105.19 36.73 105.4 38.93 105.61C39.88 105.7 40.83 105.79 41.78 105.89C43.15 106.02 44.52 106.15 45.89 106.28C46.31 106.32 46.74 106.36 47.17 106.4C49.3 106.61 51.39 106.88 53.49 107.25C64.52 108.75 64.52 108.75 74.48 107.25C75.45 107.25 76.42 107.25 77.41 107.25C76.92 108.22 76.92 108.22 74.48 108.71C74.16 109.19 73.84 109.68 73.51 110.18C72.51 110.16 72.51 110.16 71.49 110.14C69.63 110.17 68 110.29 66.18 110.66C66.18 110.34 66.18 110.02 66.18 109.69C63.93 110.01 61.67 110.33 59.35 110.66C59.19 110.5 59.02 110.34 58.86 110.18C54.99 109.59 51.24 109.11 47.33 109.2C42.99 109.2 42.99 109.2 42.26 107.73C40.39 107.69 38.71 107.79 36.89 108.22C36.39 107.87 36.39 107.87 35.88 107.52C34.24 106.65 32.86 106.45 31.03 106.27C27.61 103.34 27.61 103.34 27.61 102.36Z" fill="#1B4173" fill-opacity="1.000000" fill-rule="nonzero"/>
		<path id="Vector 1" d="M84.25 54.51C85.71 55 85.71 55 85.71 56.46C87 56.46 88.29 56.46 89.62 56.46C89.78 57.59 89.94 58.72 90.11 59.88C90.91 60.04 91.72 60.2 92.55 60.37C92.55 61.66 92.55 62.95 92.55 64.28C92.87 64.28 93.19 64.28 93.53 64.28C93.53 65.57 93.53 66.85 93.53 68.18C92.08 68.34 90.63 68.5 89.13 68.67C89.07 69.18 89.01 69.7 88.95 70.23C88.69 71.82 88.33 73.07 87.67 74.53C87.51 74.53 87.34 74.53 87.18 74.53C87.02 80.17 86.86 85.81 86.69 91.62C86.53 91.62 86.37 91.62 86.2 91.62C86.2 91.23 86.2 90.85 86.19 90.45C86.16 86.42 86.12 82.39 86.07 78.36C86.06 76.85 86.04 75.35 86.03 73.85C86.02 71.68 85.99 69.51 85.96 67.35C85.96 66.68 85.96 66.02 85.95 65.33C85.9 61.46 85.44 58.19 84.25 54.51Z" fill="#1E4F89" fill-opacity="1.000000" fill-rule="nonzero"/>
		<path id="Vector 1" d="M87.18 17.4C90.11 17.4 90.11 17.4 91.08 17.89C91.08 18.21 91.08 18.53 91.08 18.87C91.84 19.01 92.6 19.15 93.37 19.29C98.41 20.29 98.41 20.29 98.41 21.31C96.23 21.55 96.23 21.55 94.01 21.8C94.01 25.5 95.14 26.51 98.41 28.14C98.41 28.47 98.41 28.79 98.41 29.12C99.38 29.12 100.34 29.12 101.34 29.12C101.34 28.8 101.34 28.48 101.34 28.14C101.66 28.14 101.98 28.14 102.32 28.14C102.19 29.08 102.19 29.08 102.07 30.04C101.81 31.87 101.81 31.87 101.83 33.03C102.31 32.87 102.79 32.7 103.29 32.54C103.61 33.67 103.94 34.79 104.27 35.96C104.91 36.6 105.56 37.25 106.22 37.91C106.22 38.23 106.22 38.55 106.22 38.89C106.54 38.89 106.87 38.89 107.2 38.89C107.36 39.37 107.52 39.85 107.69 40.35C108.33 40.67 108.98 41 109.64 41.33C109.96 43.26 110.28 45.19 110.62 47.19C111.1 47.43 111.1 47.43 111.59 47.67C111.83 49.12 111.83 49.12 112.08 50.6C110.65 48.7 109.67 46.86 108.6 44.75C102.78 33.53 94.08 25.61 83.27 19.35C85.23 18.38 85.23 18.38 87.18 18.38C87.18 18.06 87.18 17.73 87.18 17.4Z" fill="#4373A9" fill-opacity="1.000000" fill-rule="nonzero"/>
		<path id="Vector 1" d="M35.91 81.85C38.84 81.85 38.84 81.85 39.82 86.25C42.26 89.04 42.26 89.04 52.51 87.71C53.85 85.06 53.85 85.06 54.46 82.34C55.43 82.34 56.4 82.34 57.39 82.34C57.39 89.42 57.39 89.42 53.98 91.13C37.92 90.56 37.92 90.56 35.91 85.27C35.82 83.35 35.82 83.35 35.91 81.85Z" fill="#373633" fill-opacity="1.000000" fill-rule="nonzero"/>
		<path id="Vector 1" d="M111.1 59.39C121.88 70.17 109.82 100.57 103.04 110.48C100.46 113.92 89.58 127.74 84.74 125.31C85.71 122.87 85.71 122.87 87.33 122.66C89.1 122.44 89.1 122.44 90.6 121.89C90.6 121.57 90.6 121.25 90.6 120.92C91.4 120.43 92.21 119.95 93.04 119.45C93.28 118.73 93.28 118.73 93.53 117.99C95.97 116.52 95.97 116.52 96.94 116.52C97.11 115.88 97.27 115.23 97.43 114.57C97.87 114.27 98.3 113.97 98.74 113.65C100.76 111.75 101.7 109.75 102.8 107.25C103.29 107.25 103.77 107.25 104.27 107.25C104.59 104.67 104.91 102.09 105.25 99.43C106.7 98.95 106.7 98.95 108.18 98.46C108.34 97.65 108.5 96.84 108.66 96.01C108.99 96.01 109.31 96.01 109.64 96.01C109.72 95.24 109.72 95.24 109.79 94.46C110.31 90.85 111.2 87.34 112.08 83.81C112.2 81.22 112.17 78.62 112.17 76.03C112.18 74.97 112.18 74.97 112.19 73.88C112.2 70.05 112 66.41 111.32 62.63C111.1 61.35 111.1 61.35 111.1 59.39Z" fill="#20406B" fill-opacity="1.000000" fill-rule="nonzero"/>
		<path id="Vector 1" d="M45.19 24.73C44.34 25.43 43.5 26.13 42.65 26.83C42.18 27.22 41.71 27.61 41.23 28.02C39.98 28.99 38.73 29.77 37.37 30.58C36.89 31.07 36.41 31.55 35.91 32.05C35.59 32.05 35.26 32.05 34.93 32.05C34.93 32.37 34.93 32.69 34.93 33.03C34.21 33.6 34.21 33.6 33.47 34.19C31.18 36.13 29.42 38.46 27.61 40.84C27.29 40.68 26.96 40.52 26.63 40.35C22.57 46.31 19.89 52.86 18.33 59.88C18.17 59.88 18.01 59.88 17.84 59.88C18.17 54.44 19.61 49.54 22.24 44.75C22.45 44.34 22.66 43.93 22.87 43.51C25.54 38.4 29.87 30.36 35.57 28.2C37.57 27.37 39.09 26.05 40.79 24.73C44.21 24.24 44.21 24.24 45.19 24.73Z" fill="#698AB7" fill-opacity="1.000000" fill-rule="nonzero"/>
		<path id="Vector 1" d="M65.45 15.39C65.94 15.39 66.44 15.4 66.95 15.4C70.57 15.43 70.57 15.43 71.07 16.42C70.52 16.45 69.98 16.48 69.42 16.51C68.72 16.56 68.01 16.6 67.28 16.64C66.23 16.7 66.23 16.7 65.15 16.76C63.23 16.86 63.23 16.86 61.3 17.4C63.23 17.56 65.17 17.72 67.16 17.89C67.16 18.05 67.16 18.21 67.16 18.38C66.62 18.38 66.08 18.39 65.53 18.4C57.91 18.64 51.46 20.33 44.72 23.97C43.23 24.73 43.23 24.73 41.71 25.22C40.28 25.71 39.35 26.29 38.17 27.23C36.4 28.63 36.4 28.63 34.93 28.14C40.96 22.57 48.04 18.7 55.93 16.42C56.52 16.25 57.15 16.08 57.75 15.9C60.37 15.36 62.78 15.34 65.45 15.39Z" fill="#C7DDEF" fill-opacity="1.000000" fill-rule="nonzero"/>
		<path id="Vector 1" d="M90.11 126.78C88.93 127.95 87.69 128.5 86.2 129.22C86.04 129.7 85.88 130.18 85.71 130.68C87 130.68 88.29 130.68 89.62 130.68C86.78 136.36 67.95 133.72 62.76 133.12C62.6 132.8 62.44 132.48 62.28 132.15C62.62 132.13 62.97 132.11 63.33 132.09C68.56 131.78 87.08 125.26 90.11 126.78Z" fill="#1E3153" fill-opacity="1.000000" fill-rule="nonzero"/>
		<path id="Vector 1" d="M28.1 101.87C28.85 101.97 29.6 102.06 30.37 102.16C38.57 103.15 46.77 103.84 55.01 104.41C56.25 104.49 57.49 104.58 58.72 104.67C61.7 104.88 64.67 105.09 67.65 105.29C67.65 105.45 67.65 105.61 67.65 105.78C35.36 109.14 35.36 109.14 28.1 101.87Z" fill="#777D90" fill-opacity="1.000000" fill-rule="nonzero"/>
		<path id="Vector 1" d="M117.45 62.32C117.94 64.28 117.94 64.28 117.45 65.68C116.91 67.09 116.91 67.09 116.96 68.18C118.25 68.18 119.54 68.18 120.87 68.18C121.03 69.31 121.19 70.44 121.36 71.6C122.49 71.76 123.61 71.92 124.78 72.09C125.4 76.76 125.4 76.76 124.78 78.92C124.45 78.92 124.13 78.92 123.8 78.92C123.8 79.25 123.8 79.57 123.8 79.9C118.92 78.92 118.92 78.92 118.92 77.46C119.56 77.62 120.21 77.78 120.87 77.95C120.87 76.82 120.87 75.69 120.87 74.53C121.03 74.53 121.19 74.53 121.36 74.53C121.52 75.98 121.68 77.43 121.85 78.92C122.33 78.92 122.81 78.92 123.31 78.92C123.31 77.31 123.31 75.7 123.31 74.04C117.79 73.79 117.79 73.79 117.94 78.92C117.78 78.92 117.62 78.92 117.45 78.92C117.34 77.68 117.23 76.45 117.12 75.21C117.03 74.04 117.03 74.04 116.48 73.07C116.28 71.5 116.11 69.94 115.96 68.37C115.91 67.93 115.87 67.49 115.82 67.04C115.41 63 115.41 63 117.45 62.32Z" fill="#35679E" fill-opacity="1.000000" fill-rule="nonzero"/>
		<path id="Vector 1" d="M34.93 40.84C36.22 40.84 37.51 40.84 38.84 40.84C38.84 42.13 38.84 43.42 38.84 44.75C44.12 44.8 49.37 44.75 54.65 44.53C55.12 44.51 55.59 44.49 56.08 44.47C58.35 44.37 60.53 44.17 62.76 43.77C69.02 43.37 74.75 44.88 80.34 47.67C80.34 48.65 80.34 48.65 78.88 49.14C78.48 48.85 78.07 48.56 77.66 48.25C74.26 46.13 71.38 45.54 67.39 45.56C66.95 45.56 66.51 45.56 66.06 45.56C64.65 45.57 63.23 45.58 61.82 45.6C60.84 45.61 59.87 45.61 58.89 45.62C52.85 45.66 46.81 45.8 40.77 46.1C37.68 46.24 34.6 46.26 31.51 46.21C31.51 46.05 31.51 45.89 31.51 45.72C32.64 45.72 33.77 45.72 34.93 45.72C34.93 44.11 34.93 42.5 34.93 40.84Z" fill="#5F9CCD" fill-opacity="1.000000" fill-rule="nonzero"/>
		<path id="Vector 1" d="M114.03 56.46C114.35 57.69 114.67 58.93 114.98 60.16C115.16 60.84 115.33 61.53 115.51 62.23C116.21 65.22 116.54 68.02 116.51 71.08C116.5 71.64 116.5 72.2 116.49 72.77C116.49 73.19 116.48 73.61 116.48 74.04C116.15 73.4 115.83 72.75 115.5 72.09C114.63 73.83 114.68 75.85 114.49 77.76C114.45 78.2 114.4 78.64 114.36 79.09C114.25 80.18 114.14 81.26 114.03 82.34C113.87 82.34 113.71 82.34 113.55 82.34C113.54 81.78 113.54 81.78 113.53 81.21C113.41 73.09 112.86 65.37 111.1 57.44C111.59 56.46 111.59 56.46 114.03 56.46Z" fill="#B6B4BD" fill-opacity="1.000000" fill-rule="nonzero"/>
		<path id="Vector 1" d="M111.59 99.43C112.43 101.1 111.04 102.54 110.25 104.13C109.91 104.82 109.57 105.51 109.22 106.23C106.72 110.99 106.72 110.99 104.88 111.58C101.78 112.52 101.78 112.52 100.85 115.55C96.94 118.48 96.94 118.48 95.97 117.99C96.52 117.47 97.08 116.96 97.65 116.43C101.62 112.43 106.56 99.43 111.59 99.43Z" fill="#6E707E" fill-opacity="1.000000" fill-rule="nonzero"/>
		<path id="Vector 1" d="M105.73 111.15C102.55 117.51 97.09 122.77 90.11 124.34C89.44 124.53 88.78 124.72 88.09 124.92C87.63 125.05 87.17 125.18 86.69 125.31C86.69 125.63 86.69 125.96 86.69 126.29C86.05 126.13 85.4 125.97 84.74 125.8C85.14 125.56 85.55 125.32 85.97 125.07C88.94 123.27 91.74 121.44 94.43 119.26C96.14 117.98 97.98 117.02 99.87 116.03C100.36 115.07 100.84 114.1 101.34 113.1C103.78 111.15 103.78 111.15 105.73 111.15Z" fill="#54596A" fill-opacity="1.000000" fill-rule="nonzero"/>
		<path id="Vector 1" d="M17.35 85.76C17.84 85.76 17.84 85.76 18.82 89.18C19.3 89.34 19.79 89.5 20.28 89.67C20.43 90.08 20.57 90.49 20.72 90.92C22.42 95.64 24.41 98.89 28.1 102.36C26.05 103.39 23.1 98.59 21.75 96.99C21.59 96.19 21.43 95.38 21.26 94.55C20.94 94.55 20.62 94.55 20.28 94.55C20.5 95.18 20.71 95.82 20.92 96.47C21.69 98.76 22.45 101.05 23.21 103.34C23.54 103.5 23.86 103.66 24.19 103.83C24.41 104.29 24.63 104.75 24.86 105.23C25.56 106.76 25.56 106.76 26.63 107.73C26.31 108.06 25.99 108.38 25.66 108.71C20.81 101.29 17.7 94.7 17.35 85.76Z" fill="#3D5E8D" fill-opacity="1.000000" fill-rule="nonzero"/>
		<path id="Vector 1" d="M115.01 87.71C115.97 91.56 113.75 96.41 112.08 99.92C111.11 99.76 110.15 99.6 109.15 99.43C109.57 97.06 110.24 94.76 110.89 92.44C111.01 92.04 111.12 91.63 111.24 91.21C112.22 87.71 112.22 87.71 115.01 87.71Z" fill="#888A94" fill-opacity="1.000000" fill-rule="nonzero"/>
		<path id="Vector 1" d="M82.3 52.56C84.95 55.21 86.03 58.13 85.71 61.83C85.39 61.19 85.07 60.55 84.74 59.88C78.16 66.46 82.96 78.42 82.78 87.71C82.62 87.71 82.46 87.71 82.3 87.71C82.29 87.37 82.29 87.03 82.28 86.67C82.24 83.1 82.19 79.53 82.14 75.96C82.12 74.62 82.11 73.29 82.09 71.96C82.07 70.04 82.04 68.12 82.01 66.21C82 65.61 82 65.02 81.99 64.4C81.98 63.84 81.97 63.29 81.96 62.71C81.96 62.22 81.95 61.74 81.94 61.23C81.8 59.81 81.42 58.73 80.83 57.44C80.99 56.96 81.15 56.47 81.32 55.98C81.65 54.84 81.97 53.7 82.3 52.56Z" fill="#CAC6CC" fill-opacity="1.000000" fill-rule="nonzero"/>
		<path id="Vector 1" d="M83.27 22.28C82.3 22.77 82.3 22.77 80.77 22.13C75.47 20.22 70.45 19.71 64.84 19.69C64 19.69 64 19.69 63.14 19.68C58.56 19.72 54.48 20.3 50.19 22.01C49.42 22.31 49.42 22.31 48.64 22.62C47.13 23.26 45.67 23.98 44.21 24.73C43.89 24.56 43.57 24.4 43.23 24.24C55.3 17.6 70.75 14.98 83.27 22.28Z" fill="#285185" fill-opacity="1.000000" fill-rule="nonzero"/>
		<path id="Vector 1" d="M28.1 112.62C29.92 114.13 31.61 115.64 33.22 117.38C39.4 123.58 47.6 126.97 55.93 129.22C55.93 129.38 55.93 129.54 55.93 129.71C51.74 130.01 48.93 129.1 45.19 127.27C44.73 127.04 44.27 126.82 43.79 126.59C40.51 124.9 37.73 122.83 34.93 120.43C34.54 120.09 34.19 119.83 33.79 119.48C28.15 114.6 28.1 114.53 28.1 112.62Z" fill="#67739D" fill-opacity="1.000000" fill-rule="nonzero"/>
		<path id="Vector 1" d="M84.25 126.78C82.62 131.66 72.16 131.32 67.92 131.29C67.35 131.3 66.79 131.3 66.2 131.3C62.8 131.3 59.73 130.98 56.42 130.19C56.42 130.03 56.42 129.87 56.42 129.71C57 129.73 57 129.73 57.6 129.75C62.63 129.89 81.12 125.21 84.25 126.78Z" fill="#626679" fill-opacity="1.000000" fill-rule="nonzero"/>
		<path id="Vector 1" d="M76.16 46.94C81.18 49.06 82.34 51.16 81.81 56.46C80.34 56.46 80.34 56.46 79.82 55.5C78.19 52.62 76.63 50.66 74 48.65C74.97 46.7 74.97 46.7 76.16 46.94Z" fill="#D9DAE0" fill-opacity="1.000000" fill-rule="nonzero"/>
		<path id="Vector 1" d="M85.71 57.93C87.63 57.93 87.68 60.93 87.97 62.54C88.15 64.27 88.19 65.95 88.16 67.69C88.32 67.86 88.48 68.02 88.64 68.18C88.72 70.55 88.74 72.39 87.67 74.53C87.51 74.53 87.34 74.53 87.18 74.53C87.02 80.17 86.86 85.81 86.69 91.62C86.53 91.62 86.37 91.62 86.2 91.62C86.04 80.5 85.88 69.38 85.71 57.93Z" fill="#35527D" fill-opacity="1.000000" fill-rule="nonzero"/>
		<path id="Vector 1" d="M27.12 42.79C27.12 44.08 27.12 45.37 27.12 46.7C29.3 46.46 29.3 46.46 31.51 46.21C30.4 46.77 29.27 47.32 28.13 47.83C26.5 48.72 25.44 49.74 24.19 51.09C23.21 52.07 23.21 52.07 21.75 52.07C22.16 49.78 23.75 41.11 27.12 42.79Z" fill="#5598D2" fill-opacity="1.000000" fill-rule="nonzero"/>
		<path id="Vector 1" d="M111.1 59.39C114.56 62.85 113.69 71.25 113.7 75.78C113.7 76.42 113.7 77.06 113.71 77.72C113.68 80.73 113.62 83.39 112.57 86.25C112.39 86.88 112.21 87.52 112.02 88.17C111.59 89.67 111.59 89.67 111.1 89.67C111.03 88.09 111.05 86.89 111.59 85.39C112.15 83.59 112.21 82.1 112.21 80.22C112.21 79.53 112.21 78.84 112.21 78.13C112.21 77.42 112.18 76.76 112.17 76.03C112.18 75.32 112.19 74.61 112.19 73.88C112.18 70.07 112 66.39 111.32 62.63C111.11 61.34 111.1 61.35 111.1 59.39Z" fill="#294A77" fill-opacity="1.000000" fill-rule="nonzero"/>
		<path id="Vector 1" d="M112.08 28.63C115.01 29.12 115.01 29.12 120.38 34.49C119.89 36.93 119.89 36.93 116.96 36.93C116.96 35.64 116.96 34.35 116.96 33.03C115.68 33.03 114.39 33.03 113.06 33.03C113.06 31.74 113.06 30.45 113.06 29.12C112.74 28.96 112.41 28.8 112.08 28.63Z" fill="#3E6DAA" fill-opacity="1.000000" fill-rule="nonzero"/>
		<path id="Vector 1" d="M45.19 24.73C44.34 25.43 43.5 26.13 42.65 26.83C42.18 27.22 41.71 27.61 41.23 28.02C39.98 28.99 38.73 29.77 37.37 30.58C36.89 31.07 36.41 31.55 35.91 32.05C35.59 32.05 35.26 32.05 34.93 32.05C34.93 32.37 34.93 32.69 34.93 33.03C34.45 33.41 33.97 33.79 33.47 34.19C31.18 36.13 29.42 38.46 27.61 40.84C27.29 40.68 26.96 40.52 26.63 40.35C40.18 22.22 40.18 22.22 45.19 24.73Z" fill="#62A3DF" fill-opacity="1.000000" fill-rule="nonzero"/>
		<path id="Vector 1" d="M54.95 17.4C54.95 18.38 54.95 18.38 53.7 18.77C47.16 20.96 41.61 24.12 36.4 28.63C35.91 28.47 35.43 28.31 34.93 28.14C40 23.46 47.74 17.4 54.95 17.4Z" fill="#D1E1EE" fill-opacity="1.000000" fill-rule="nonzero"/>
		<path id="Vector 1" d="M28.1 101.87C28.87 101.97 29.58 102.06 30.37 102.16C37.88 103.06 45.46 103.77 53 104.32C49.54 107.78 34.77 104.46 30.05 103.83C29.41 103.18 28.76 102.54 28.1 101.87Z" fill="#93959F" fill-opacity="1.000000" fill-rule="nonzero"/>
		<path id="Vector 1" d="M96.46 107.25C98.23 107.25 100 107.25 101.83 107.25C99.91 112.37 98.61 111.94 93.53 111.15C93.53 110.51 93.53 109.86 93.53 109.2C94.82 109.2 96.1 109.2 97.43 109.2C97.43 108.88 97.43 108.55 97.43 108.22C97.11 108.22 96.79 108.22 96.46 108.22C96.46 107.9 96.46 107.58 96.46 107.25Z" fill="#1C3C76" fill-opacity="1.000000" fill-rule="nonzero"/>
		<path id="Vector 1" d="M127.22 45.72C128.19 46.21 128.19 46.21 128.57 47.25C128.74 47.71 128.91 48.17 129.08 48.65C129.26 49.14 129.43 49.63 129.62 50.13C130.07 51.36 130.53 52.59 131 53.81C131.61 55.49 131.61 55.49 131.61 56.46C129.69 56.86 128.68 56.95 126.73 56.46C126.73 53.05 126.73 53.05 128.68 52.56C128.39 50.2 127.91 48 127.22 45.72Z" fill="#3B6DA5" fill-opacity="1.000000" fill-rule="nonzero"/>
		<path id="Vector 1" d="M85.71 93.57C85.41 94.36 85.11 95.14 84.8 95.92C84.63 96.36 84.46 96.8 84.28 97.24C83.13 99.92 83.13 99.92 81.81 99.92C81.81 99.28 81.81 98.63 81.81 97.97C79.98 98.35 79.98 98.35 78.88 98.94C80.19 95.62 80.19 95.62 81.53 94.82C83.58 93.57 83.58 93.57 85.71 93.57ZM78.39 98.94C78.39 100.41 78.39 100.41 76.44 102.36C76.11 102.2 75.79 102.04 75.46 101.87C76.43 100.91 77.39 99.94 78.39 98.94Z" fill="#7E818D" fill-opacity="1.000000" fill-rule="nonzero"/>
		<path id="Vector 1" d="M61.35 19.29C61.93 19.29 62.51 19.29 63.11 19.29C63.72 19.29 64.33 19.29 64.96 19.29C65.57 19.29 66.18 19.29 66.81 19.29C67.69 19.29 67.69 19.29 68.58 19.29C69.38 19.29 69.38 19.29 70.2 19.29C71.55 19.35 71.55 19.35 73.02 19.84C73.02 21.31 73.02 21.31 69.11 22.28C69.11 21.96 69.11 21.64 69.11 21.31C69.43 21.31 69.76 21.31 70.09 21.31C70.09 20.99 70.09 20.66 70.09 20.33C68.8 20.33 67.51 20.33 66.18 20.33C66.18 20.65 66.18 20.98 66.18 21.31C64.89 21.31 63.6 21.31 62.28 21.31C62.28 20.82 62.28 20.34 62.28 19.84C61.79 20.08 61.79 20.08 61.3 20.33C60.33 20.33 59.37 20.33 58.37 20.33C58.37 20.65 58.37 20.98 58.37 21.31C56.91 20.82 56.91 20.82 56.91 19.84C58.5 19.31 59.67 19.29 61.35 19.29Z" fill="#3A7CBF" fill-opacity="1.000000" fill-rule="nonzero"/>
		<path id="Vector 1" d="M56.42 20.33C54.46 22.28 54.46 22.28 53 21.8C51.65 23.42 51.65 23.42 50.56 25.21C46.65 25.21 46.65 25.21 45.19 23.75C52.88 20.16 52.88 20.16 56.42 20.33Z" fill="#5096DF" fill-opacity="1.000000" fill-rule="nonzero"/>
		<path id="Vector 1" d="M116.48 67.69C116.48 69.79 116.48 71.88 116.48 74.04C116.15 73.4 115.83 72.75 115.5 72.09C114.63 73.83 114.68 75.85 114.49 77.76C114.45 78.2 114.4 78.64 114.36 79.09C114.25 80.18 114.14 81.26 114.03 82.34C113.87 82.34 113.71 82.34 113.55 82.34C113.53 80.62 113.52 78.9 113.52 77.19C113.51 76.7 113.51 76.22 113.5 75.72C113.48 67.69 113.48 67.69 116.48 67.69Z" fill="#ABAAAE" fill-opacity="1.000000" fill-rule="nonzero"/>
		<path id="Vector 1" d="M98.9 114.08C97.54 119.52 90.26 123.13 85.71 125.8C85.39 125.64 85.07 125.48 84.74 125.31C85.71 122.87 85.71 122.87 87.33 122.66C89.1 122.44 89.1 122.44 90.6 121.89C90.6 121.57 90.6 121.25 90.6 120.92C91.4 120.43 92.21 119.95 93.04 119.45C93.2 118.97 93.36 118.49 93.53 117.99C95.97 116.52 95.97 116.52 96.94 116.52C97.11 115.88 97.27 115.23 97.43 114.57C97.92 114.08 97.92 114.08 98.9 114.08Z" fill="#1D2D4E" fill-opacity="1.000000" fill-rule="nonzero"/>
		<path id="Vector 1" d="M111.59 99.43C112.08 100.41 112.08 100.41 109.64 105.29C109.16 104.97 108.67 104.65 108.18 104.32C106.55 104.64 106.55 104.64 106.22 106.27C103.97 101.76 108.04 99.43 111.59 99.43Z" fill="#7A7B8B" fill-opacity="1.000000" fill-rule="nonzero"/>
		<path id="Vector 1" d="M43.23 24.73C41.96 26 40.77 26.93 39.3 27.96C34.73 31.26 30.99 34.85 27.61 39.37C27.61 34 38.21 24.73 43.23 24.73Z" fill="#2C5385" fill-opacity="1.000000" fill-rule="nonzero"/>
		<path id="Vector 1" d="M109.15 107.73C109.15 111.15 109.15 111.15 106.71 112.13C106.23 113.1 105.74 114.06 105.25 115.06C104.04 115.78 104.04 115.78 102.8 116.52C102.5 117.08 102.5 117.08 102.19 117.65C100.99 119.5 100.19 120.7 97.92 119.94C98.35 119.61 98.77 119.27 99.21 118.93C100.92 117.44 102.22 115.9 103.6 114.11C104.05 113.53 104.5 112.96 104.96 112.36C108.4 107.73 108.4 107.73 109.15 107.73Z" fill="#213A65" fill-opacity="1.000000" fill-rule="nonzero"/>
		<path id="Vector 1" d="M27.61 102.36C30.05 103.34 30.05 103.34 30.54 104.8C31.99 104.97 33.44 105.13 34.93 105.29C34.93 105.61 34.93 105.94 34.93 106.27C35.68 106.26 36.42 106.25 37.19 106.24C39.1 106.24 40.87 106.36 42.75 106.76C42.26 107.73 42.26 107.73 40.94 107.7C39.51 107.73 38.27 107.9 36.89 108.22C36.39 107.87 36.39 107.87 35.88 107.52C34.24 106.65 32.86 106.45 31.03 106.27C27.61 103.34 27.61 103.34 27.61 102.36Z" fill="#22497D" fill-opacity="1.000000" fill-rule="nonzero"/>
		<path id="Vector 1" d="M77.9 126.78C77.9 127.1 77.9 127.42 77.9 127.75C78.55 127.91 79.19 128.08 79.85 128.24C74.03 129.77 68.83 130.47 62.76 130.19C62.76 130.03 62.76 129.87 62.76 129.71C63.96 129.6 63.96 129.6 65.18 129.49C69.89 129.07 73.71 126.78 77.9 126.78Z" fill="#142D4D" fill-opacity="1.000000" fill-rule="nonzero"/>
		<path id="Vector 1" d="M34.93 40.84C36.22 40.84 37.51 40.84 38.84 40.84C38.84 44.75 38.84 44.75 36.4 45.23C34.93 44.75 34.93 44.75 34.93 40.84Z" fill="#5AA7E6" fill-opacity="1.000000" fill-rule="nonzero"/>
		<path id="Vector 1" d="M31.03 114.08C32.98 115.06 32.98 115.06 33.96 117.01C34.6 117.01 35.25 117.01 35.91 117.01C35.91 117.66 35.91 118.3 35.91 118.96C36.88 118.96 37.84 118.96 38.84 118.96C39.16 120.09 39.48 121.22 39.82 122.38C37.47 121.66 36.06 120.33 34.29 118.66C33.77 118.17 33.25 117.68 32.71 117.18C31.51 116.03 31.51 116.03 31.03 114.08Z" fill="#203C6D" fill-opacity="1.000000" fill-rule="nonzero"/>
		<path id="Vector 1" d="M55.44 18.87C55.12 18.87 54.8 18.87 54.46 18.87C54.46 19.19 54.46 19.51 54.46 19.84C53.94 20.03 53.42 20.22 52.87 20.41C52.18 20.67 51.49 20.92 50.77 21.19C50.09 21.43 49.4 21.68 48.69 21.94C46.76 22.73 45.02 23.65 43.23 24.73C42.59 24.56 41.94 24.4 41.28 24.24C51.48 17.55 51.48 17.55 55.44 18.87Z" fill="#7E96B8" fill-opacity="1.000000" fill-rule="nonzero"/>
		<path id="Vector 1" d="M35.91 81.85C36.88 81.85 37.84 81.85 38.84 81.85C38.84 86.25 38.84 86.25 38.35 87.23C35.24 86.45 35.86 84.71 35.91 81.85Z" fill="#30302E" fill-opacity="1.000000" fill-rule="nonzero"/>
		<path id="Vector 1" d="M45.67 125.8C55.93 129.22 55.93 129.22 55.93 129.71C51.76 130.01 48.93 129.06 45.19 127.27C45.35 126.78 45.51 126.3 45.67 125.8Z" fill="#636B88" fill-opacity="1.000000" fill-rule="nonzero"/>
		<path id="Vector 1" d="M118.43 74.04C120.04 74.04 121.65 74.04 123.31 74.04C123.31 75.65 123.31 77.26 123.31 78.92C121.85 78.92 121.85 78.92 120.87 75.51C120.06 75.51 119.26 75.51 118.43 75.51C118.43 75.02 118.43 74.54 118.43 74.04Z" fill="#122440" fill-opacity="1.000000" fill-rule="nonzero"/>
		<path id="Vector 1" d="M104.76 124.34C105.24 124.5 105.72 124.66 106.22 124.82C105.73 126.29 105.73 126.29 104.71 126.46C103.1 126.82 101.63 127.36 100.09 127.97C99.54 128.18 99 128.39 98.44 128.61C97.27 129.09 96.12 129.63 94.99 130.19C94.35 130.03 93.7 129.87 93.04 129.71C95.33 128.48 97.28 127.52 99.87 127.27C100.04 126.94 100.2 126.62 100.36 126.29C101.81 125.97 103.26 125.64 104.76 125.31C104.76 124.99 104.76 124.67 104.76 124.34Z" fill="#2E405F" fill-opacity="1.000000" fill-rule="nonzero"/>
		<path id="Vector 1" d="M54.46 123.85C55.75 123.85 57.04 123.85 58.37 123.85C58.37 124.81 58.37 125.78 58.37 126.78C57.08 126.78 55.79 126.78 54.46 126.78C54.46 125.81 54.46 124.84 54.46 123.85Z" fill="#16366F" fill-opacity="1.000000" fill-rule="nonzero"/>
		<path id="Vector 1" d="M24.19 43.28C24.68 44.75 24.68 44.75 24.09 46C22.26 49.91 20.64 53.82 19.31 57.93C19.15 57.93 18.99 57.93 18.82 57.93C19.13 52.6 21.79 47.95 24.19 43.28Z" fill="#33629C" fill-opacity="1.000000" fill-rule="nonzero"/>
		<path id="Vector 1" d="M44.7 22.77C44.34 22.99 43.99 23.21 43.63 23.43C41.07 25.03 38.65 26.62 36.4 28.63C35.91 28.47 35.43 28.31 34.93 28.14C42.47 21.29 42.47 21.29 44.7 22.77Z" fill="#C4D0DC" fill-opacity="1.000000" fill-rule="nonzero"/>
		<path id="Vector 1" d="M97.43 36.93C99.55 37.46 101.34 38.29 101.34 40.84C100.05 40.84 98.76 40.84 97.43 40.84C97.43 39.55 97.43 38.26 97.43 36.93Z" fill="#2D70B7" fill-opacity="1.000000" fill-rule="nonzero"/>
		<path id="Vector 1" d="M53.98 16.91C54.46 16.91 54.94 16.91 55.44 16.91C55.44 17.24 55.44 17.56 55.44 17.89C57.21 17.57 58.99 17.25 60.81 16.91C60.97 17.07 61.13 17.24 61.3 17.4C63.23 17.56 65.17 17.72 67.16 17.89C67.16 18.05 67.16 18.21 67.16 18.38C66.57 18.41 65.98 18.44 65.37 18.47C64.59 18.51 63.81 18.55 63.01 18.59C61.85 18.65 61.85 18.65 60.67 18.71C58.59 18.85 56.54 19.07 54.46 19.35C54.62 18.71 54.79 18.07 54.95 17.4C54.63 17.24 54.31 17.08 53.98 16.91Z" fill="#B0BFD5" fill-opacity="1.000000" fill-rule="nonzero"/>
		<path id="Vector 1" d="M134.05 69.65C134.22 69.65 134.38 69.65 134.54 69.65C134.57 72.34 134.59 75.04 134.6 77.73C134.61 78.5 134.62 79.26 134.63 80.05C134.63 80.79 134.63 81.52 134.64 82.28C134.64 82.96 134.65 83.64 134.65 84.34C134.54 86.25 134.17 87.85 133.57 89.67C133.4 89.67 133.24 89.67 133.08 89.67C133.08 85.76 133.08 85.76 133.57 84.78C133.81 77.29 133.81 77.29 134.05 69.65Z" fill="#525F73" fill-opacity="1.000000" fill-rule="nonzero"/>
		<path id="Vector 1" d="M92.06 28.63C94.13 29.67 95.31 30.76 96.94 32.39C97.45 32.88 97.95 33.38 98.47 33.89C99.87 35.47 100.85 37.02 101.83 38.89C100.85 38.89 100.85 38.89 100.19 38.01C97.74 34.81 95.19 32.16 92.06 29.61C92.06 29.29 92.06 28.96 92.06 28.63Z" fill="#2C4A77" fill-opacity="1.000000" fill-rule="nonzero"/>
		<path id="Vector 1" d="M67.65 105.29C67.65 105.45 67.65 105.61 67.65 105.78C66.18 105.88 64.72 105.97 63.25 106.06C62.84 106.08 62.43 106.11 62.01 106.14C59.43 106.29 57.02 106.18 54.46 105.78C56.43 101.85 63.25 105.12 67.65 105.29Z" fill="#8E919A" fill-opacity="1.000000" fill-rule="nonzero"/>
		<path id="Vector 1" d="M70.58 104.8C70.58 106.27 70.58 106.27 69.6 106.76C66.7 106.76 63.8 106.76 60.81 106.76C62.28 105.78 62.28 105.78 63.4 105.69C63.89 105.65 64.37 105.61 64.87 105.57C65.35 105.53 65.83 105.49 66.33 105.45C67.84 105.27 69.05 104.8 70.58 104.8Z" fill="#72798A" fill-opacity="1.000000" fill-rule="nonzero"/>
		<path id="Vector 1" d="M31.03 60.37C34.93 60.37 34.93 60.37 35.42 62.81C33.25 63.05 33.25 63.05 31.03 63.3C31.03 62.33 31.03 61.37 31.03 60.37Z" fill="#FDF4EE" fill-opacity="1.000000" fill-rule="nonzero"/>
		<path id="Vector 1" d="M35.91 29.12C30.05 34.98 30.05 34.98 29.07 34.98C30.34 32.44 32.69 28.05 35.91 29.12Z" fill="#94AECF" fill-opacity="1.000000" fill-rule="nonzero"/>
		<path id="Vector 1" d="M94.5 120.43C92.24 122.83 90.08 124.91 86.69 125.31C86.69 125.63 86.69 125.96 86.69 126.29C86.05 126.13 85.4 125.97 84.74 125.8C85.17 125.54 85.53 125.33 85.97 125.07C86.54 124.72 87.17 124.32 87.76 123.97C88.32 123.63 88.88 123.29 89.46 122.94C93.86 120.11 93.86 120.11 94.5 120.43Z" fill="#626275" fill-opacity="1.000000" fill-rule="nonzero"/>
		<path id="Vector 1" d="M121.85 111.15C121.85 113.96 119.88 115.65 117.94 117.5C117.46 117.98 116.97 118.47 116.48 118.96C115.99 118.8 115.51 118.64 115.01 118.48C116.96 116.52 116.96 116.52 117.94 116.52C118.26 115.88 118.59 115.23 118.92 114.57C120.81 111.67 120.81 111.67 121.85 111.15Z" fill="#38465D" fill-opacity="1.000000" fill-rule="nonzero"/>
		<path id="Vector 1" d="M70.58 44.75C74.48 44.75 74.48 44.75 74.97 45.72C75.4 45.77 75.84 45.82 76.28 45.87C80.34 46.72 80.34 46.72 80.34 48.65C78.88 49.14 78.79 49.11 77.66 48.25C75.38 46.86 73.1 46.08 70.58 45.23C70.58 45.07 70.58 44.91 70.58 44.75Z" fill="#4C8AC2" fill-opacity="1.000000" fill-rule="nonzero"/>
		<path id="Vector 1" d="M43.23 24.73C42 25.96 40.92 26.81 39.48 27.75C39.09 28.01 38.69 28.26 38.28 28.53C37.37 29.12 37.37 29.12 35.91 28.63C40.41 24.73 40.41 24.73 43.23 24.73Z" fill="#3C669F" fill-opacity="1.000000" fill-rule="nonzero"/>
		<path id="Vector 1" d="M56.42 20.33C54.46 22.28 54.46 22.28 53 21.8C52.19 22.44 51.39 23.08 50.56 23.75C49.58 22.77 49.58 22.77 49.09 21.8C53.7 20.12 53.7 20.12 56.42 20.33Z" fill="#4C8BCC" fill-opacity="1.000000" fill-rule="nonzero"/>
		<path id="Vector 1" d="M28.58 34.49C29.07 34.81 29.55 35.14 30.05 35.47C29.81 35.77 29.58 36.07 29.34 36.38C29.03 36.77 28.72 37.17 28.4 37.57C27.94 38.16 27.94 38.16 27.47 38.76C26.84 39.59 26.24 40.45 25.66 41.33C25.33 41.33 25.01 41.33 24.68 41.33C25.33 39.56 26.12 38.09 27.18 36.54C27.58 35.96 27.58 35.96 27.98 35.37C28.18 35.08 28.38 34.79 28.58 34.49Z" fill="#7699C7" fill-opacity="1.000000" fill-rule="nonzero"/>
		<path id="Vector 1" d="M61.35 19.29C61.93 19.29 62.51 19.29 63.11 19.29C63.72 19.29 64.33 19.29 64.96 19.29C65.57 19.29 66.18 19.29 66.81 19.29C67.69 19.29 67.69 19.29 68.58 19.29C69.38 19.29 69.38 19.29 70.2 19.29C71.55 19.35 71.55 19.35 73.02 19.84C73.02 21.31 73.02 21.31 69.11 22.28C69.11 21.96 69.11 21.64 69.11 21.31C69.43 21.31 69.76 21.31 70.09 21.31C70.09 20.99 70.09 20.66 70.09 20.33C68.8 20.33 67.51 20.33 66.18 20.33C66.18 20.65 66.18 20.98 66.18 21.31C64.89 21.31 63.6 21.31 62.28 21.31C62.28 20.82 62.28 20.34 62.28 19.84C61.79 20.08 61.79 20.08 61.3 20.33C60.33 20.33 59.37 20.33 58.37 20.33C58.37 20.65 58.37 20.98 58.37 21.31C56.91 20.82 56.91 20.82 56.91 19.84C58.5 19.31 59.67 19.29 61.35 19.29Z" fill="#3A7CBF" fill-opacity="1.000000" fill-rule="nonzero"/>
		<path id="Vector 1" d="M56.42 20.33C54.46 22.28 54.46 22.28 53 21.8C51.65 23.42 51.65 23.42 50.56 25.21C46.65 25.21 46.65 25.21 45.19 23.75C52.88 20.16 52.88 20.16 56.42 20.33Z" fill="#5096DF" fill-opacity="1.000000" fill-rule="nonzero"/>
		<path id="Vector 1" d="M116.48 67.69C116.48 69.79 116.48 71.88 116.48 74.04C116.15 73.4 115.83 72.75 115.5 72.09C114.63 73.83 114.68 75.85 114.49 77.76C114.45 78.2 114.4 78.64 114.36 79.09C114.25 80.18 114.14 81.26 114.03 82.34C113.87 82.34 113.71 82.34 113.55 82.34C113.53 80.62 113.52 78.9 113.52 77.19C113.51 76.7 113.51 76.22 113.5 75.72C113.48 67.69 113.48 67.69 116.48 67.69Z" fill="#ABAAAE" fill-opacity="1.000000" fill-rule="nonzero"/>
		<path id="Vector 1" d="M98.9 114.08C97.54 119.52 90.26 123.13 85.71 125.8C85.39 125.64 85.07 125.48 84.74 125.31C85.71 122.87 85.71 122.87 87.33 122.66C89.1 122.44 89.1 122.44 90.6 121.89C90.6 121.57 90.6 121.25 90.6 120.92C91.4 120.43 92.21 119.95 93.04 119.45C93.2 118.97 93.36 118.49 93.53 117.99C95.97 116.52 95.97 116.52 96.94 116.52C97.11 115.88 97.27 115.23 97.43 114.57C97.92 114.08 97.92 114.08 98.9 114.08Z" fill="#1D2D4E" fill-opacity="1.000000" fill-rule="nonzero"/>
		<path id="Vector 1" d="M111.59 99.43C112.08 100.41 112.08 100.41 109.64 105.29C109.16 104.97 108.67 104.65 108.18 104.32C106.55 104.64 106.55 104.64 106.22 106.27C103.97 101.76 108.04 99.43 111.59 99.43Z" fill="#7A7B8B" fill-opacity="1.000000" fill-rule="nonzero"/>
		<path id="Vector 1" d="M43.23 24.73C41.96 26 40.77 26.93 39.3 27.96C34.73 31.26 30.99 34.85 27.61 39.37C27.61 34 38.21 24.73 43.23 24.73Z" fill="#2C5385" fill-opacity="1.000000" fill-rule="nonzero"/>
		<path id="Vector 1" d="M109.15 107.73C109.15 111.15 109.15 111.15 106.71 112.13C106.23 113.1 105.74 114.06 105.25 115.06C104.04 115.78 104.04 115.78 102.8 116.52C102.5 117.08 102.5 117.08 102.19 117.65C100.99 119.5 100.19 120.7 97.92 119.94C98.35 119.61 98.77 119.27 99.21 118.93C100.92 117.44 102.22 115.9 103.6 114.11C104.05 113.53 104.5 112.96 104.96 112.36C108.4 107.73 108.4 107.73 109.15 107.73Z" fill="#213A65" fill-opacity="1.000000" fill-rule="nonzero"/>
		<path id="Vector 1" d="M27.61 102.36C30.05 103.34 30.05 103.34 30.54 104.8C31.99 104.97 33.44 105.13 34.93 105.29C34.93 105.61 34.93 105.94 34.93 106.27C35.68 106.26 36.42 106.25 37.19 106.24C39.1 106.24 40.87 106.36 42.75 106.76C42.26 107.73 42.26 107.73 40.94 107.7C39.51 107.73 38.27 107.9 36.89 108.22C36.39 107.87 36.39 107.87 35.88 107.52C34.24 106.65 32.86 106.45 31.03 106.27C27.61 103.34 27.61 103.34 27.61 102.36Z" fill="#22497D" fill-opacity="1.000000" fill-rule="nonzero"/>
		<path id="Vector 1" d="M77.9 126.78C77.9 127.1 77.9 127.42 77.9 127.75C78.55 127.91 79.19 128.08 79.85 128.24C74.03 129.77 68.83 130.47 62.76 130.19C62.76 130.03 62.76 129.87 62.76 129.71C63.96 129.6 63.96 129.6 65.18 129.49C69.89 129.07 73.71 126.78 77.9 126.78Z" fill="#142D4D" fill-opacity="1.000000" fill-rule="nonzero"/>
		<path id="Vector 1" d="M34.93 40.84C36.22 40.84 37.51 40.84 38.84 40.84C38.84 44.75 38.84 44.75 36.4 45.23C34.93 44.75 34.93 44.75 34.93 40.84Z" fill="#5AA7E6" fill-opacity="1.000000" fill-rule="nonzero"/>
		<path id="Vector 1" d="M31.03 114.08C32.98 115.06 32.98 115.06 33.96 117.01C34.6 117.01 35.25 117.01 35.91 117.01C35.91 117.66 35.91 118.3 35.91 118.96C36.88 118.96 37.84 118.96 38.84 118.96C39.16 120.09 39.48 121.22 39.82 122.38C37.47 121.66 36.06 120.33 34.29 118.66C33.77 118.17 33.25 117.68 32.71 117.18C31.51 116.03 31.51 116.03 31.03 114.08Z" fill="#203C6D" fill-opacity="1.000000" fill-rule="nonzero"/>
		<path id="Vector 1" d="M55.44 18.87C55.12 18.87 54.8 18.87 54.46 18.87C54.46 19.19 54.46 19.51 54.46 19.84C53.94 20.03 53.42 20.22 52.87 20.41C52.18 20.67 51.49 20.92 50.77 21.19C50.09 21.43 49.4 21.68 48.69 21.94C46.76 22.73 45.02 23.65 43.23 24.73C42.59 24.56 41.94 24.4 41.28 24.24C51.48 17.55 51.48 17.55 55.44 18.87Z" fill="#7E96B8" fill-opacity="1.000000" fill-rule="nonzero"/>
		<path id="Vector 1" d="M35.91 81.85C36.88 81.85 37.84 81.85 38.84 81.85C38.84 86.25 38.84 86.25 38.35 87.23C35.24 86.45 35.86 84.71 35.91 81.85Z" fill="#30302E" fill-opacity="1.000000" fill-rule="nonzero"/>
		<path id="Vector 1" d="M45.67 125.8C55.93 129.22 55.93 129.22 55.93 129.71C51.76 130.01 48.93 129.06 45.19 127.27C45.35 126.78 45.51 126.3 45.67 125.8Z" fill="#636B88" fill-opacity="1.000000" fill-rule="nonzero"/>
		<path id="Vector 1" d="M118.43 74.04C120.04 74.04 121.65 74.04 123.31 74.04C123.31 75.65 123.31 77.26 123.31 78.92C121.85 78.92 121.85 78.92 120.87 75.51C120.06 75.51 119.26 75.51 118.43 75.51C118.43 75.02 118.43 74.54 118.43 74.04Z" fill="#122440" fill-opacity="1.000000" fill-rule="nonzero"/>
		<path id="Vector 1" d="M104.76 124.34C105.24 124.5 105.72 124.66 106.22 124.82C105.73 126.29 105.73 126.29 104.71 126.46C103.1 126.82 101.63 127.36 100.09 127.97C99.54 128.18 99 128.39 98.44 128.61C97.27 129.09 96.12 129.63 94.99 130.19C94.35 130.03 93.7 129.87 93.04 129.71C95.33 128.48 97.28 127.52 99.87 127.27C100.04 126.94 100.2 126.62 100.36 126.29C101.81 125.97 103.26 125.64 104.76 125.31C104.76 124.99 104.76 124.67 104.76 124.34Z" fill="#2E405F" fill-opacity="1.000000" fill-rule="nonzero"/>
		<path id="Vector 1" d="M54.46 123.85C55.75 123.85 57.04 123.85 58.37 123.85C58.37 124.81 58.37 125.78 58.37 126.78C57.08 126.78 55.79 126.78 54.46 126.78C54.46 125.81 54.46 124.84 54.46 123.85Z" fill="#16366F" fill-opacity="1.000000" fill-rule="nonzero"/>
		<path id="Vector 1" d="M24.19 43.28C24.68 44.75 24.68 44.75 24.09 46C22.26 49.91 20.64 53.82 19.31 57.93C19.15 57.93 18.99 57.93 18.82 57.93C19.13 52.6 21.79 47.95 24.19 43.28Z" fill="#33629C" fill-opacity="1.000000" fill-rule="nonzero"/>
		<path id="Vector 1" d="M44.7 22.77C44.34 22.99 43.99 23.21 43.63 23.43C41.07 25.03 38.65 26.62 36.4 28.63C35.91 28.47 35.43 28.31 34.93 28.14C42.47 21.29 42.47 21.29 44.7 22.77Z" fill="#C4D0DC" fill-opacity="1.000000" fill-rule="nonzero"/>
		<path id="Vector 1" d="M97.43 36.93C99.55 37.46 101.34 38.29 101.34 40.84C100.05 40.84 98.76 40.84 97.43 40.84C97.43 39.55 97.43 38.26 97.43 36.93Z" fill="#2D70B7" fill-opacity="1.000000" fill-rule="nonzero"/>
		<path id="Vector 1" d="M53.98 16.91C54.46 16.91 54.94 16.91 55.44 16.91C55.44 17.24 55.44 17.56 55.44 17.89C57.21 17.57 58.99 17.25 60.81 16.91C60.97 17.07 61.13 17.24 61.3 17.4C63.23 17.56 65.17 17.72 67.16 17.89C67.16 18.05 67.16 18.21 67.16 18.38C66.57 18.41 65.98 18.44 65.37 18.47C64.59 18.51 63.81 18.55 63.01 18.59C61.85 18.65 61.85 18.65 60.67 18.71C58.59 18.85 56.54 19.07 54.46 19.35C54.62 18.71 54.79 18.07 54.95 17.4C54.63 17.24 54.31 17.08 53.98 16.91Z" fill="#B0BFD5" fill-opacity="1.000000" fill-rule="nonzero"/>
		<path id="Vector 1" d="M134.05 69.65C134.22 69.65 134.38 69.65 134.54 69.65C134.57 72.34 134.59 75.04 134.6 77.73C134.61 78.5 134.62 79.26 134.63 80.05C134.63 80.79 134.63 81.52 134.64 82.28C134.64 82.96 134.65 83.64 134.65 84.34C134.54 86.25 134.17 87.85 133.57 89.67C133.4 89.67 133.24 89.67 133.08 89.67C133.08 85.76 133.08 85.76 133.57 84.78C133.81 77.29 133.81 77.29 134.05 69.65Z" fill="#525F73" fill-opacity="1.000000" fill-rule="nonzero"/>
		<path id="Vector 1" d="M92.06 28.63C94.13 29.67 95.31 30.76 96.94 32.39C97.45 32.88 97.95 33.38 98.47 33.89C99.87 35.47 100.85 37.02 101.83 38.89C100.85 38.89 100.85 38.89 100.19 38.01C97.74 34.81 95.19 32.16 92.06 29.61C92.06 29.29 92.06 28.96 92.06 28.63Z" fill="#2C4A77" fill-opacity="1.000000" fill-rule="nonzero"/>
		<path id="Vector 1" d="M67.65 105.29C67.65 105.45 67.65 105.61 67.65 105.78C66.18 105.88 64.72 105.97 63.25 106.06C62.84 106.08 62.43 106.11 62.01 106.14C59.43 106.29 57.02 106.18 54.46 105.78C56.43 101.85 63.25 105.12 67.65 105.29Z" fill="#8E919A" fill-opacity="1.000000" fill-rule="nonzero"/>
		<path id="Vector 1" d="M70.58 104.8C70.58 106.27 70.58 106.27 69.6 106.76C66.7 106.76 63.8 106.76 60.81 106.76C62.28 105.78 62.28 105.78 63.4 105.69C63.89 105.65 64.37 105.61 64.87 105.57C65.35 105.53 65.83 105.49 66.33 105.45C67.84 105.27 69.05 104.8 70.58 104.8Z" fill="#72798A" fill-opacity="1.000000" fill-rule="nonzero"/>
		<path id="Vector 1" d="M31.03 60.37C34.93 60.37 34.93 60.37 35.42 62.81C33.25 63.05 33.25 63.05 31.03 63.3C31.03 62.33 31.03 61.37 31.03 60.37Z" fill="#FDF4EE" fill-opacity="1.000000" fill-rule="nonzero"/>
		<path id="Vector 1" d="M35.91 29.12C30.05 34.98 30.05 34.98 29.07 34.98C30.34 32.44 32.69 28.05 35.91 29.12Z" fill="#94AECF" fill-opacity="1.000000" fill-rule="nonzero"/>
		<path id="Vector 1" d="M94.5 120.43C92.24 122.83 90.08 124.91 86.69 125.31C86.69 125.63 86.69 125.96 86.69 126.29C86.05 126.13 85.4 125.97 84.74 125.8C85.17 125.54 85.53 125.33 85.97 125.07C86.54 124.72 87.17 124.32 87.76 123.97C88.32 123.63 88.88 123.29 89.46 122.94C93.86 120.11 93.86 120.11 94.5 120.43Z" fill="#626275" fill-opacity="1.000000" fill-rule="nonzero"/>
		<path id="Vector 1" d="M121.85 111.15C121.85 113.96 119.88 115.65 117.94 117.5C117.46 117.98 116.97 118.47 116.48 118.96C115.99 118.8 115.51 118.64 115.01 118.48C116.96 116.52 116.96 116.52 117.94 116.52C118.26 115.88 118.59 115.23 118.92 114.57C120.81 111.67 120.81 111.67 121.85 111.15Z" fill="#38465D" fill-opacity="1.000000" fill-rule="nonzero"/>
		<path id="Vector 1" d="M70.58 44.75C74.48 44.75 74.48 44.75 74.97 45.72C75.4 45.77 75.84 45.82 76.28 45.87C80.34 46.72 80.34 46.72 80.34 48.65C78.88 49.14 78.79 49.11 77.66 48.25C75.38 46.86 73.1 46.08 70.58 45.23C70.58 45.07 70.58 44.91 70.58 44.75Z" fill="#4C8AC2" fill-opacity="1.000000" fill-rule="nonzero"/>
		<path id="Vector 1" d="M43.23 24.73C42 25.96 40.92 26.81 39.48 27.75C39.09 28.01 38.69 28.26 38.28 28.53C37.37 29.12 37.37 29.12 35.91 28.63C40.41 24.73 40.41 24.73 43.23 24.73Z" fill="#3C669F" fill-opacity="1.000000" fill-rule="nonzero"/>
		<path id="Vector 1" d="M56.42 20.33C54.46 22.28 54.46 22.28 53 21.8C52.19 22.44 51.39 23.08 50.56 23.75C49.58 22.77 49.58 22.77 49.09 21.8C53.7 20.12 53.7 20.12 56.42 20.33Z" fill="#4C8BCC" fill-opacity="1.000000" fill-rule="nonzero"/>
		<path id="Vector 1" d="M28.58 34.49C29.07 34.81 29.55 35.14 30.05 35.47C29.81 35.77 29.58 36.07 29.34 36.38C29.03 36.77 28.72 37.17 28.4 37.57C27.94 38.16 27.94 38.16 27.47 38.76C26.84 39.59 26.24 40.45 25.66 41.33C25.33 41.33 25.01 41.33 24.68 41.33C25.33 39.56 26.12 38.09 27.18 36.54C27.58 35.96 27.58 35.96 27.98 35.37C28.18 35.08 28.38 34.79 28.58 34.49Z" fill="#7699C7" fill-opacity="1.000000" fill-rule="nonzero"/>
	</g>
</svg>
